<svg xmlns="http://www.w3.org/2000/svg" id="logo" viewBox="0 0 1000 188" xmlns:xlink="http://www.w3.org/1999/xlink">
  <path d="M116 146l0 -94 -37 70 -15 0 -36 -70 0 94 -28 0 0 -142 30 0 42 81 42 -81 29 0 0 142 -27 0zm101 2c-8,0 -16,-2 -23,-5 -7,-3 -12,-6 -17,-11 -5,-5 -9,-11 -11,-18 -3,-6 -4,-13 -4,-20 0,-8 1,-15 4,-21 2,-7 6,-12 11,-17 5,-5 10,-9 17,-12 7,-3 15,-5 23,-5 9,0 16,2 23,5 7,3 12,7 17,12 5,5 8,10 11,17 3,6 4,13 4,21 0,7 -1,14 -4,20 -3,7 -6,13 -11,18 -4,5 -10,8 -17,11 -7,3 -14,5 -23,5zm-27 -54c0,4 0,9 2,12 1,4 3,7 6,10 2,3 5,5 8,7 4,1 7,2 11,2 4,0 8,-1 11,-2 3,-2 6,-4 9,-7 2,-3 4,-6 5,-10 2,-4 2,-8 2,-13 0,-4 0,-8 -2,-12 -1,-4 -3,-7 -5,-10 -3,-3 -6,-5 -9,-7 -3,-1 -7,-2 -11,-2 -4,0 -7,1 -11,3 -3,1 -6,3 -8,6 -3,3 -5,6 -6,10 -2,4 -2,8 -2,13zm159 54c-8,0 -15,-2 -21,-6 -6,-3 -11,-8 -15,-14l0 18 -23 0 0 -146 27 0 0 60c3,-7 8,-12 14,-15 6,-4 13,-6 22,-6 6,0 12,2 18,5 6,3 10,7 15,12 4,4 7,10 9,17 2,7 3,14 3,21 0,7 -1,15 -3,21 -3,7 -6,12 -11,17 -4,5 -9,9 -15,12 -6,2 -13,4 -20,4zm-7 -23c4,0 8,-1 12,-2 3,-2 6,-4 9,-7 2,-3 4,-6 6,-10 1,-4 2,-8 2,-12 0,-4 -1,-8 -2,-12 -1,-4 -3,-7 -6,-10 -2,-3 -5,-6 -8,-7 -4,-2 -7,-3 -11,-3 -6,0 -12,2 -17,6 -4,4 -8,9 -10,14l0 25c0,3 2,6 4,8 1,2 3,4 6,5 2,2 4,3 7,4 3,1 5,1 8,1zm74 21l0 -105 27 0 0 105 -27 0zm0 -119l0 -27 27 0 0 27 -27 0zm51 -27l27 0 0 112c0,4 1,7 3,9 2,2 4,3 8,3 1,0 3,0 5,0 2,-1 4,-2 5,-2l4 20c-4,2 -8,3 -13,4 -4,1 -9,1 -12,1 -9,0 -15,-2 -20,-6 -5,-5 -7,-11 -7,-19l0 -122zm112 148c-8,0 -16,-2 -23,-4 -6,-3 -12,-7 -17,-12 -5,-5 -8,-11 -11,-17 -3,-7 -4,-14 -4,-21 0,-7 1,-14 4,-21 2,-7 6,-12 11,-17 5,-5 10,-9 17,-12 7,-3 15,-5 23,-5 9,0 17,2 23,5 7,3 13,7 17,12 5,4 9,10 11,17 3,6 4,13 4,20 0,2 0,3 0,5 0,2 0,3 -1,4l-81 0c1,4 2,8 3,11 2,3 4,6 7,8 2,2 5,4 8,5 3,2 7,2 10,2 6,0 11,-1 15,-4 5,-2 8,-6 10,-10l23 6c-4,8 -10,15 -19,20 -8,5 -18,8 -30,8zm27 -63c0,-8 -3,-14 -8,-19 -5,-5 -12,-7 -19,-7 -4,0 -7,0 -10,2 -3,1 -6,3 -8,5 -3,2 -5,5 -6,8 -2,3 -3,7 -3,11l54 0zm73 63c-5,0 -10,-1 -14,-3 -5,-1 -9,-4 -12,-7 -3,-3 -5,-6 -7,-10 -2,-4 -3,-9 -3,-13 0,-5 1,-10 3,-14 3,-4 6,-8 10,-11 4,-3 8,-5 14,-7 5,-1 11,-2 18,-2 4,0 9,0 13,1 5,1 9,2 12,3l0 -6c0,-6 -2,-12 -6,-15 -4,-4 -9,-6 -17,-6 -6,0 -11,1 -17,3 -5,2 -10,5 -16,9l-8 -17c13,-9 28,-14 43,-14 15,0 27,4 35,11 9,8 13,19 13,32l0 33c0,3 0,5 1,6 1,1 3,2 5,2l0 23c-4,1 -8,1 -11,1 -5,0 -9,-1 -12,-3 -3,-2 -5,-5 -5,-9l-1 -6c-4,6 -10,11 -17,14 -6,3 -14,5 -21,5zm7 -20c5,0 9,-1 13,-2 4,-2 8,-4 10,-7 3,-2 4,-4 4,-7l0 -12c-3,-1 -6,-2 -10,-3 -4,-1 -8,-1 -11,-1 -7,0 -13,1 -17,5 -4,3 -7,7 -7,11 0,5 2,9 6,12 3,3 7,4 12,4zm142 20c-9,0 -16,-2 -22,-6 -6,-3 -11,-8 -14,-15l0 61 -27 0 0 -147 23 0 0 18c4,-6 9,-11 15,-14 6,-4 13,-6 21,-6 8,0 14,2 20,5 6,3 11,6 15,11 5,5 8,11 11,17 2,7 3,14 3,21 0,8 -1,15 -3,22 -2,6 -5,12 -10,17 -4,5 -8,9 -14,12 -6,2 -12,4 -18,4zm-9 -23c4,0 7,-1 11,-3 3,-1 6,-4 8,-7 3,-2 5,-6 6,-10 1,-4 2,-8 2,-12 0,-4 -1,-8 -2,-12 -2,-4 -4,-7 -6,-10 -3,-3 -6,-5 -9,-6 -4,-2 -8,-3 -12,-3 -2,0 -5,1 -8,1 -2,1 -5,3 -7,4 -2,2 -4,4 -6,6 -2,2 -3,4 -4,7l0 24c2,6 6,11 11,15 5,4 10,6 16,6zm135 23c-8,0 -15,-2 -21,-6 -6,-3 -11,-8 -15,-15l0 61 -26 0 0 -147 23 0 0 18c4,-6 9,-11 15,-14 6,-4 13,-6 21,-6 7,0 14,2 20,5 6,3 11,6 15,11 4,5 8,11 10,17 3,7 4,14 4,21 0,8 -1,15 -3,22 -3,6 -6,12 -10,17 -4,5 -9,9 -14,12 -6,2 -12,4 -19,4zm-9 -23c4,0 8,-1 11,-3 4,-1 7,-4 9,-7 2,-2 4,-6 6,-10 1,-4 2,-8 2,-12 0,-4 -1,-8 -3,-12 -1,-4 -3,-7 -6,-10 -2,-3 -5,-5 -9,-6 -3,-2 -7,-3 -11,-3 -3,0 -5,1 -8,1 -3,1 -5,3 -7,4 -3,2 -5,4 -7,6 -1,2 -3,4 -4,7l0 24c3,6 6,11 11,15 5,4 11,6 16,6z"/>
</svg>
