<svg xmlns="http://www.w3.org/2000/svg" id="logo" viewBox="0 0 1000 188"><path d="M116 146V52l-37 70H64L28 52v94H0V4h30l42 81 42-81h29v142h-27zm101 2c-8 0-16-2-23-5s-12-6-17-11-9-11-11-18c-3-6-4-13-4-20 0-8 1-15 4-21 2-7 6-12 11-17s10-9 17-12 15-5 23-5c9 0 16 2 23 5s12 7 17 12 8 10 11 17c3 6 4 13 4 21 0 7-1 14-4 20-3 7-6 13-11 18-4 5-10 8-17 11s-14 5-23 5zm-27-54c0 4 0 9 2 12 1 4 3 7 6 10 2 3 5 5 8 7 4 1 7 2 11 2s8-1 11-2c3-2 6-4 9-7 2-3 4-6 5-10 2-4 2-8 2-13 0-4 0-8-2-12-1-4-3-7-5-10-3-3-6-5-9-7-3-1-7-2-11-2s-7 1-11 3c-3 1-6 3-8 6-3 3-5 6-6 10-2 4-2 8-2 13zm159 54c-8 0-15-2-21-6-6-3-11-8-15-14v18h-23V0h27v60c3-7 8-12 14-15 6-4 13-6 22-6 6 0 12 2 18 5s10 7 15 12c4 4 7 10 9 17s3 14 3 21-1 15-3 21c-3 7-6 12-11 17-4 5-9 9-15 12-6 2-13 4-20 4zm-7-23c4 0 8-1 12-2 3-2 6-4 9-7 2-3 4-6 6-10 1-4 2-8 2-12s-1-8-2-12-3-7-6-10c-2-3-5-6-8-7-4-2-7-3-11-3-6 0-12 2-17 6-4 4-8 9-10 14v25c0 3 2 6 4 8 1 2 3 4 6 5 2 2 4 3 7 4s5 1 8 1zm74 21V41h27v105h-27zm0-119V0h27v27h-27zm51-27h27v112c0 4 1 7 3 9s4 3 8 3h5c2-1 4-2 5-2l4 20c-4 2-8 3-13 4-4 1-9 1-12 1-9 0-15-2-20-6-5-5-7-11-7-19V0zm112 148c-8 0-16-2-23-4-6-3-12-7-17-12s-8-11-11-17c-3-7-4-14-4-21s1-14 4-21c2-7 6-12 11-17s10-9 17-12 15-5 23-5c9 0 17 2 23 5 7 3 13 7 17 12 5 4 9 10 11 17 3 6 4 13 4 20v5c0 2 0 3-1 4h-81c1 4 2 8 3 11 2 3 4 6 7 8 2 2 5 4 8 5 3 2 7 2 10 2 6 0 11-1 15-4 5-2 8-6 10-10l23 6c-4 8-10 15-19 20-8 5-18 8-30 8zm27-63c0-8-3-14-8-19s-12-7-19-7c-4 0-7 0-10 2-3 1-6 3-8 5-3 2-5 5-6 8-2 3-3 7-3 11h54zm73 63c-5 0-10-1-14-3-5-1-9-4-12-7s-5-6-7-10-3-9-3-13c0-5 1-10 3-14 3-4 6-8 10-11s8-5 14-7c5-1 11-2 18-2 4 0 9 0 13 1 5 1 9 2 12 3v-6c0-6-2-12-6-15-4-4-9-6-17-6-6 0-11 1-17 3-5 2-10 5-16 9l-8-17c13-9 28-14 43-14s27 4 35 11c9 8 13 19 13 32v33c0 3 0 5 1 6s3 2 5 2v23c-4 1-8 1-11 1-5 0-9-1-12-3s-5-5-5-9l-1-6c-4 6-10 11-17 14-6 3-14 5-21 5zm7-20c5 0 9-1 13-2 4-2 8-4 10-7 3-2 4-4 4-7v-12c-3-1-6-2-10-3s-8-1-11-1c-7 0-13 1-17 5-4 3-7 7-7 11 0 5 2 9 6 12 3 3 7 4 12 4zm142 20c-9 0-16-2-22-6-6-3-11-8-14-15v61h-27V41h23v18c4-6 9-11 15-14 6-4 13-6 21-6s14 2 20 5 11 6 15 11c5 5 8 11 11 17 2 7 3 14 3 21 0 8-1 15-3 22-2 6-5 12-10 17-4 5-8 9-14 12-6 2-12 4-18 4zm-9-23c4 0 7-1 11-3 3-1 6-4 8-7 3-2 5-6 6-10s2-8 2-12-1-8-2-12c-2-4-4-7-6-10-3-3-6-5-9-6-4-2-8-3-12-3-2 0-5 1-8 1-2 1-5 3-7 4l-6 6c-2 2-3 4-4 7v24c2 6 6 11 11 15s10 6 16 6zm135 23c-8 0-15-2-21-6-6-3-11-8-15-15v61h-26V41h23v18c4-6 9-11 15-14 6-4 13-6 21-6 7 0 14 2 20 5s11 6 15 11 8 11 10 17c3 7 4 14 4 21 0 8-1 15-3 22-3 6-6 12-10 17s-9 9-14 12c-6 2-12 4-19 4zm-9-23c4 0 8-1 11-3 4-1 7-4 9-7 2-2 4-6 6-10 1-4 2-8 2-12s-1-8-3-12c-1-4-3-7-6-10-2-3-5-5-9-6-3-2-7-3-11-3-3 0-5 1-8 1-3 1-5 3-7 4-3 2-5 4-7 6-1 2-3 4-4 7v24c3 6 6 11 11 15s11 6 16 6z"/></svg>